<?xml version="1.0" encoding="UTF-8" standalone="no"?>
<svg width="120px" height="120px" viewBox="0 0 120 120" version="1.1" xmlns="http://www.w3.org/2000/svg" xmlns:xlink="http://www.w3.org/1999/xlink">
    <!-- Generator: Sketch 41.1 (35376) - http://www.bohemiancoding.com/sketch -->
    <title>Brooks_Illustration_2</title>
    <desc>Created with Sketch.</desc>
    <defs></defs>
    <g id="Page-3" stroke="none" stroke-width="1" fill="none" fill-rule="evenodd">
        <g id="Brooks_Illustration_2" fill="#7BC9B7">
            <path d="M87.831754,63.1124778 C87.6816724,63.1491779 87.543566,63.2238967 87.4307306,63.3294407 L85.5929514,65.0484644 L86.8438308,65.0690244 L67.2748172,45.5198034 C67.0234995,45.2687399 66.6480144,45.188995 66.3163508,45.3162458 L57.5064462,48.6963815 C57.3453462,48.7743842 57.2089792,48.8402677 57.0041139,48.928607 C56.6519479,49.0804635 56.2439254,49.2333942 55.7866445,49.3766774 C53.5042791,50.0918278 50.9935958,50.2909656 48.4447932,49.6628045 C46.6744763,49.2265039 45.1899543,48.4402544 43.9638611,47.4036105 C43.2855984,46.8301493 42.7299386,46.2166732 42.289695,45.60615 C42.0320048,45.2487889 41.874003,44.9806208 41.8081076,44.8462122 L41.4261329,46.0351203 L67.0648753,32.2528755 C67.0816742,32.2498452 67.2687106,32.1766279 67.5404999,32.0802789 C68.0012403,31.916947 68.5248552,31.7529979 69.1000646,31.5997349 C71.7139902,30.9032616 74.4050028,30.6662037 76.8856484,31.1528377 C79.0951473,31.5862803 80.9939785,32.5767181 82.5174122,34.219296 C82.7287218,34.4471317 83.0426143,34.5498442 83.3477334,34.4909954 C83.8696261,34.3903373 83.8696261,34.3903373 85.9571953,33.9877046 C88.5666566,33.4844137 88.5666566,33.4844137 91.69801,32.8804646 C94.8293638,32.2765155 94.8293638,32.2765155 97.4388252,31.7732245 C99.5263943,31.3705918 99.5263943,31.3705918 100.048287,31.2699336 C100.536348,31.1758004 100.85569,30.7038385 100.761557,30.2157771 C100.667424,29.7277158 100.195462,29.4083739 99.7074003,29.5025071 C99.185508,29.6031653 99.185508,29.6031653 97.0979388,30.005798 C94.4884774,30.509089 94.4884774,30.509089 91.3571237,31.1130381 C88.2257703,31.7169872 88.2257703,31.7169872 85.616309,32.220278 C83.5287399,32.6229107 83.5287399,32.6229107 83.0068472,32.7235689 L83.8371683,32.9952683 C82.042086,31.0597967 79.799781,29.8902017 77.2321541,29.3865043 C74.4437199,28.8394906 71.4925389,29.0994675 68.6366282,29.860417 C68.0130704,30.0265623 67.4437051,30.2048363 66.9390742,30.3837274 C66.6316407,30.4927123 66.4107067,30.5791991 66.2869488,30.6317551 L40.5738671,44.4496731 C40.1475954,44.6788177 39.9788519,45.2040371 40.1918924,45.6385812 C40.5918015,46.4542859 41.4331751,47.6210904 42.8017006,48.7781588 C44.2328963,49.9882139 45.9647182,50.9054412 48.0140653,51.4105097 C50.915925,52.1256829 53.750996,51.900816 56.3248497,51.0943313 C57.2176626,50.8145797 57.8756535,50.5308494 58.2509853,50.3315106 L66.9611355,46.9967971 L66.0026692,46.7932395 L85.5716827,66.3424604 C85.9149368,66.6853673 86.4682241,66.6944614 86.8225621,66.3630204 L88.6603413,64.6439968 L88.259318,64.8609597 L106.20597,60.4723855 C106.688799,60.3543169 106.984497,59.8671925 106.866428,59.3843625 C106.74836,58.9015326 106.261235,58.605835 105.778405,58.7239036 L87.831754,63.1124778 Z" id="Brooks_Element_21"></path>
            <path d="M35.1695372,64.6434578 C35.6556992,64.7469539 36.1337116,64.436742 36.2372078,63.95058 C36.3407039,63.464418 36.030492,62.9864056 35.54433,62.8829094 L14.6170839,58.4278313 C14.1309219,58.3243351 13.6529095,58.6345471 13.5494133,59.1207091 C13.4459172,59.6068711 13.7561291,60.0848835 14.2422911,60.1883796 L35.1695372,64.6434578 Z" id="Brooks_Element_20"></path>
            <path d="M44.9337457,34.258692 L45.1817985,34.2748027 L20.1817985,29.1185527 C19.6949886,29.0181482 19.2189573,29.3313916 19.1185527,29.8182015 C19.0181482,30.3050114 19.3313916,30.7810427 19.8182015,30.8814473 L44.8182015,36.0376973 C44.8997426,36.0545151 44.9832229,36.0599371 45.0662543,36.053808 L62.2449652,34.7857416 C62.7406728,34.7491504 63.1128602,34.3176369 63.0762689,33.8219293 C63.0396777,33.3262217 62.6081643,32.9540344 62.1124567,32.9906256 L44.9337457,34.258692 Z" id="Brooks_Element_19"></path>
            <path d="M41.8799943,63.4370178 C43.0749451,64.6319686 43.0726173,66.572846 41.8732199,67.7722434 L39.7722434,69.8732199 C38.5740886,71.0713748 36.6299925,71.0729689 35.4370178,69.8799943 C34.242067,68.6850435 34.2443948,66.7441661 35.4437922,65.5447687 L37.5447687,63.4437922 C38.7429235,62.2456374 40.6870197,62.2440432 41.8799943,63.4370178 Z M34.171,64.2719765 C32.2693414,66.1736351 32.2656467,69.2542076 34.1642256,71.1527865 C36.0606117,73.0491726 39.1444039,73.0466438 41.0450356,71.1460121 L43.1460121,69.0450356 C45.0476707,67.1433771 45.0513654,64.0628045 43.1527865,62.1642256 C41.2564004,60.2678396 38.1726082,60.2703683 36.2719765,62.171 L34.171,64.2719765 Z" id="Brooks_Element_18"></path>
            <path d="M47.8799943,69.4370178 C49.0749451,70.6319686 49.0726173,72.572846 47.8732199,73.7722434 L45.7722434,75.8732199 C44.5740886,77.0713748 42.6299925,77.0729689 41.4370178,75.8799943 C40.242067,74.6850435 40.2443948,72.7441661 41.4437922,71.5447687 L43.5447687,69.4437922 C44.7429235,68.2456374 46.6870197,68.2440432 47.8799943,69.4370178 Z M40.171,70.2719765 C38.2693414,72.1736351 38.2656467,75.2542076 40.1642256,77.1527865 C42.0606117,79.0491726 45.1444039,79.0466438 47.0450356,77.1460121 L49.1460121,75.0450356 C51.0476707,73.1433771 51.0513654,70.0628045 49.1527865,68.1642256 C47.2564004,66.2678396 44.1726082,66.2703683 42.2719765,68.171 L40.171,70.2719765 Z" id="Brooks_Element_17"></path>
            <path d="M52.8799943,75.4370178 C54.0749451,76.6319686 54.0726173,78.572846 52.8732199,79.7722434 L50.7722434,81.8732199 C49.5740886,83.0713748 47.6299925,83.0729689 46.4370178,81.8799943 C45.242067,80.6850435 45.2443948,78.7441661 46.4437922,77.5447687 L48.5447687,75.4437922 C49.7429235,74.2456374 51.6870197,74.2440432 52.8799943,75.4370178 Z M45.171,76.2719765 C43.2693414,78.1736351 43.2656467,81.2542076 45.1642256,83.1527865 C47.0606117,85.0491726 50.1444039,85.0466438 52.0450356,83.1460121 L54.1460121,81.0450356 C56.0476707,79.1433771 56.0513654,76.0628045 54.1527865,74.1642256 C52.2564004,72.2678396 49.1726082,72.2703683 47.2719765,74.171 L45.171,76.2719765 Z" id="Brooks_Element_16"></path>
            <path d="M58.8799943,80.4370178 C60.0749451,81.6319686 60.0726173,83.572846 58.8732199,84.7722434 L56.7722434,86.8732199 C55.5740886,88.0713748 53.6299925,88.0729689 52.4370178,86.8799943 C51.242067,85.6850435 51.2443948,83.7441661 52.4437922,82.5447687 L54.5447687,80.4437922 C55.7429235,79.2456374 57.6870197,79.2440432 58.8799943,80.4370178 Z M51.171,81.2719765 C49.2693414,83.1736351 49.2656467,86.2542076 51.1642256,88.1527865 C53.0606117,90.0491726 56.1444039,90.0466438 58.0450356,88.1460121 L60.1460121,86.0450356 C62.0476707,84.1433771 62.0513654,81.0628045 60.1527865,79.1642256 C58.2564004,77.2678396 55.1726082,77.2703683 53.2719765,79.171 L51.171,81.2719765 Z" id="Brooks_Element_15"></path>
            <path d="M66.0725982,85.0725982 C64.8776474,86.267549 62.93677,86.2652212 61.7373726,85.0658238 L60.8511426,84.1795939 C60.4996708,83.828122 59.9298223,83.828122 59.5783504,84.1795939 C59.2268786,84.5310657 59.2268786,85.1009142 59.5783504,85.4523861 L60.4645804,86.338616 C62.366239,88.2402746 65.4468115,88.2439693 67.3453904,86.3453904 C69.2131725,84.4776083 69.6131272,81.9109756 68.2732502,79.7089324 C68.0148772,79.2843051 67.4611961,79.1495292 67.0365688,79.4079022 C66.6119415,79.6662751 66.4771657,80.2199562 66.7355386,80.6445836 C67.629686,82.114085 67.370992,83.7742044 66.0725982,85.0725982 Z" id="Brooks_Element_14"></path>
            <path d="M72.8799943,79.8799943 C71.6850435,81.0749451 69.7441661,81.0726173 68.5447687,79.8732199 L66.4437922,77.7722434 C66.0923203,77.4207716 65.5224719,77.4207716 65.171,77.7722434 C64.8195281,78.1237153 64.8195281,78.6935638 65.171,79.0450356 L67.2719765,81.1460121 C69.1736351,83.0476707 72.2542076,83.0513654 74.1527865,81.1527865 C76.0428593,79.2627137 76.0000373,76.2326165 74.0927048,74.325284 C73.7412329,73.9738121 73.1713844,73.9738121 72.8199126,74.325284 C72.4684407,74.6767559 72.4684407,75.2466043 72.8199126,75.5980762 C74.0322269,76.8103906 74.0589461,78.7010425 72.8799943,79.8799943 Z" id="Brooks_Element_13"></path>
            <path d="M78.8732199,70.5447687 C80.0713748,71.7429235 80.0729689,73.6870197 78.8799943,74.8799943 C77.6850435,76.0749451 75.7441661,76.0726173 74.5447687,74.8732199 L72.4437922,72.7722434 C72.0923203,72.4207716 71.5224719,72.4207716 71.171,72.7722434 C70.8195281,73.1237153 70.8195281,73.6935638 71.171,74.0450356 L73.2719765,76.1460121 C75.1736351,78.0476707 78.2542076,78.0513654 80.1527865,76.1527865 C82.0491726,74.2564004 82.0466438,71.1726082 80.1460121,69.2719765 L78.0450356,67.171 C77.6935638,66.8195281 77.1237153,66.8195281 76.7722434,67.171 C76.4207716,67.5224719 76.4207716,68.0923203 76.7722434,68.4437922 L78.8732199,70.5447687 Z" id="Brooks_Element_12"></path>
            <path d="M84.8801066,66.0139658 C84.8408345,66.5069394 84.7744406,66.9986591 84.6760794,67.4497252 C84.5221463,68.1556333 84.3039301,68.675909 84.0725982,68.9072408 C82.8776474,70.1021916 80.93677,70.0998639 79.7373726,68.9004665 L77.6363961,66.79949 C77.2849242,66.4480181 76.7150758,66.4480181 76.3636039,66.79949 C76.012132,67.1509618 76.012132,67.7208103 76.3636039,68.0722822 L78.4645804,70.1732587 C80.366239,72.0749172 83.4468115,72.0786119 85.3453904,70.1800331 C85.8779661,69.6474573 86.2136692,68.8470669 86.4347509,67.8332281 C86.5523182,67.2940869 86.629176,66.7248703 86.674422,66.1569076 C86.7015529,65.8163391 86.7122985,65.5485076 86.7139826,65.3875624 C86.7191833,64.8905334 86.3204776,64.4833957 85.8234485,64.478195 C85.3264195,64.4729944 84.9192818,64.8717 84.9140811,65.3687291 C84.9128049,65.4907003 84.9036865,65.7179725 84.8801066,66.0139658 Z" id="Brooks_Element_11"></path>
            <path d="M34,38.1 C28.532381,38.1 24.1,42.532381 24.1,48 C24.1,53.467619 28.532381,57.9 34,57.9 C39.467619,57.9 43.9,53.467619 43.9,48 L42.1,48 C42.1,52.4735065 38.4735065,56.1 34,56.1 C29.5264935,56.1 25.9,52.4735065 25.9,48 C25.9,43.5264935 29.5264935,39.9 34,39.9 C37.3808502,39.9 40.3698944,41.9904479 41.5632207,45.0936281 L43.2432799,44.4475622 C41.7847619,40.6547654 38.1318095,38.1 34,38.1 Z" id="Brooks_Element_10"></path>
            <polygon id="Brooks_Element_9" points="35.8691376 34.090031 34.2021514 33.4109456 32.0546905 38.68243 33.7216767 39.3615153"></polygon>
            <polygon id="Brooks_Element_8" points="45.5710462 35.5673096 43.8918444 34.9190185 40.9929186 42.4278076 42.6721204 43.0760987"></polygon>
            <polygon id="Brooks_Element_7" points="32.7858634 63.123236 34.4729257 63.7507874 36.8401132 57.3870179 35.1530509 56.7594665"></polygon>
            <polygon id="Brooks_Element_6" points="22.6468559 61.329165 24.3179878 61.9979834 27.5338082 53.9628272 25.8626762 53.2940088"></polygon>
            <path d="M32.9012695,47.878418 C32.9012695,48.4914709 33.5008254,48.9251114 34.0830551,48.7331676 L38.2598129,47.3562144 C38.7318781,47.2005886 38.9884028,46.6917444 38.8327769,46.2196793 C38.6771511,45.7476141 38.1683069,45.4910894 37.6962418,45.6467152 L33.5194839,47.0236684 L34.7012695,47.878418 L34.7012695,42.0805664 C34.7012695,41.5835101 34.2983258,41.1805664 33.8012695,41.1805664 C33.3042133,41.1805664 32.9012695,41.5835101 32.9012695,42.0805664 L32.9012695,47.878418 Z" id="Brooks_Element_5"></path>
        </g>
    </g>
</svg>