<?xml version="1.0" encoding="UTF-8" standalone="no"?>
<svg width="120px" height="120px" viewBox="0 0 120 120" version="1.1" xmlns="http://www.w3.org/2000/svg" xmlns:xlink="http://www.w3.org/1999/xlink">
    <!-- Generator: Sketch 41.1 (35376) - http://www.bohemiancoding.com/sketch -->
    <title>Brooks_Illustration_10</title>
    <desc>Created with Sketch.</desc>
    <defs></defs>
    <g id="Page-3" stroke="none" stroke-width="1" fill="none" fill-rule="evenodd">
        <g id="Brooks_Illustration_10" stroke="#8DD8C7" stroke-width="1.8">
            <g id="Brooks_Element_95" transform="translate(17.000000, 20.000000)">
                <path d="M41.6188282,41.1327043 L41.8026235,28.6333399 C41.8026235,28.6333399 41.8026237,26.1936751 40.1466708,23.426015 C38.4907178,20.6583548 35.0948626,14.7875906 34.8958892,14.3497519 C35.3065372,14.1414623 41.3956816,12.6863695 46.6383416,10.7627806 C51.8810017,8.83919161 50.6677694,4.85271172 50.6677694,4.85271172 L49.9406213,-2.8484735 C49.9406213,-2.8484735 54.5489987,-0.972868326 57.2608642,3.35978847 C59.1009191,6.2995826 59.5672756,11.6935576 58.62467,13.3939372 C56.2928559,17.6003294 51.9812175,21.2721682 50.6677694,24.3547831 C49.3543212,27.4373981 49.5491868,33.0035304 49.5491868,33.0035304 L49.5491865,41.0771985 M49.4838936,49.9514792 L49.483894,77.4855617 C49.483894,79.7725499 47.6363834,81.6267161 45.3459553,81.6269591 L45.2971782,81.6269642 C43.0118578,81.6272066 41.1763109,79.7687277 41.19736,77.476981 L41.4531359,49.6290467" id="Path-3199" stroke-linecap="round" stroke-linejoin="round" transform="translate(46.997422, 39.389245) rotate(-315.000000) translate(-46.997422, -39.389245) "></path>
                <path d="M43.3541716,18.0190657 C43.3541711,18.019066 43.2485173,14.2058567 46.2208362,12.100251 C49.193155,9.99464538 57.8148882,12.4896828 57.8148882,12.4896828 C58.3436557,12.6295791 58.4544188,12.4332968 58.0462449,12.0433817 C58.0462449,12.0433817 49.3931066,3.43508207 44.9412557,3.43508202 C40.4894048,3.43508196 35.4052787,3.11751216 35.4052787,3.11751216 C34.8592466,3.08610415 34.2048566,3.45344772 33.8882011,3.8977521 C33.8882011,3.8977521 33.3758835,5.5745936 30.2314619,5.57459352 C27.0870403,5.57459345 26.7729494,4.24393956 26.7729494,4.24393956 C26.4636198,3.79721987 25.7706282,3.43508201 25.2127762,3.43508201 L22.0260624,3.435082 C21.4737322,3.435082 21.0259801,3.88402161 21.0259801,4.4311909 L21.0259801,11.7468783 C21.0259801,12.297014 21.4682104,12.7429872 22.0260624,12.7429872 L25.2127761,12.7429872 C25.7651063,12.7429872 26.4480021,12.3534552 26.78456,11.9356351 C26.78456,11.9356351 27.241058,10.5066968 30.231462,10.5066968 C32.4656433,10.5066968 34.3970528,12.1874612 35.028578,14.2495905 C35.532972,15.8965962 35.6563844,16.4824896 35.6563844,18.0190657 C35.6563844,19.5556418 34.3403734,75.3699837 34.3403734,75.3699837 C34.3144629,76.4701036 35.1953596,77.3619271 36.2930872,77.3619272 L41.354543,77.3619276 C42.4589075,77.3619277 43.3541719,76.4653046 43.3541719,75.3534807 C43.3541719,75.3534807 43.3541722,18.0190654 43.3541716,18.0190657 Z" id="Path-3200" transform="translate(39.659768, 40.238782) rotate(-405.000000) translate(-39.659768, -40.238782) "></path>
                <path d="M22.368452,28.0563586 L27.4629259,22.9644111" id="Path-3188"></path>
                <path d="M27.2058105,30.6015627 L29.5091147,25.0758464" id="Path-3188-Copy" stroke-linecap="round" stroke-linejoin="round"></path>
                <path d="M30.2058105,33.6015627 L32.5091147,28.0758464" id="Path-3188-Copy" stroke-linecap="round" stroke-linejoin="round"></path>
                <path d="M33.2058105,36.6015627 L35.5091147,31.0758464" id="Path-3188-Copy" stroke-linecap="round" stroke-linejoin="round"></path>
                <path d="M36.2058105,39.6015627 L38.5091147,34.0758464" id="Path-3188-Copy" stroke-linecap="round" stroke-linejoin="round"></path>
                <path d="M57,23.3755143 L59.149375,20" id="Path-3188-Copy-2" stroke-linecap="round" stroke-linejoin="round"></path>
                <path d="M59,24.3755143 L61.149375,21" id="Path-3188-Copy-3" stroke-linecap="round" stroke-linejoin="round"></path>
                <path d="M61,25.3755143 L63.149375,22" id="Path-3188-Copy-4" stroke-linecap="round" stroke-linejoin="round"></path>
                <path d="M39.2058105,42.6015627 L41.5091147,37.0758464" id="Path-3188-Copy" stroke-linecap="round" stroke-linejoin="round"></path>
                <path d="M42.2058105,45.6015627 L44.5091147,40.0758464" id="Path-3188-Copy" stroke-linecap="round" stroke-linejoin="round"></path>
                <path d="M45.2058105,48.6015627 L47.5091147,43.0758464" id="Path-3188-Copy" stroke-linecap="round" stroke-linejoin="round"></path>
                <path d="M48.2058105,51.6015627 L50.5091147,46.0758464" id="Path-3188-Copy" stroke-linecap="round" stroke-linejoin="round"></path>
                <path d="M51.2058105,54.6015627 L53.5091147,49.0758464" id="Path-3188-Copy" stroke-linecap="round" stroke-linejoin="round"></path>
                <path d="M54.2058105,57.6015627 L56.5091147,52.0758464" id="Path-3188-Copy" stroke-linecap="round" stroke-linejoin="round"></path>
                <path d="M57.2058105,60.6015627 L59.5091147,55.0758464" id="Path-3188-Copy" stroke-linecap="round" stroke-linejoin="round"></path>
                <path d="M60.2058105,63.6015627 L62.5091147,58.0758464" id="Path-3188-Copy" stroke-linecap="round" stroke-linejoin="round"></path>
                <ellipse id="Oval-369" cx="19.5" cy="64.5" rx="1.5" ry="1.5"></ellipse>
                <path d="M64.1303174,16.7200438 L70.345542,8 C70.345542,8 62.865221,8.84242528 58.3854252,14.1890616" id="Path-3197" stroke-linecap="round" stroke-linejoin="round"></path>
            </g>
        </g>
    </g>
</svg>