<?xml version="1.0" encoding="UTF-8" standalone="no"?>
<svg width="120px" height="120px" viewBox="0 0 120 120" version="1.1" xmlns="http://www.w3.org/2000/svg" xmlns:xlink="http://www.w3.org/1999/xlink">
    <!-- Generator: Sketch 41.1 (35376) - http://www.bohemiancoding.com/sketch -->
    <title>Brooks_Illustration_5</title>
    <desc>Created with Sketch.</desc>
    <defs></defs>
    <g id="Page-3" stroke="none" stroke-width="1" fill="none" fill-rule="evenodd">
        <g id="Brooks_Illustration_5" fill="#7BC9B7">
            <path d="M92.9,60.5 C92.9,42.0536894 77.9463106,27.1 59.5,27.1 C41.0536894,27.1 26.1,42.0536894 26.1,60.5 C26.1,78.9463106 41.0536894,93.9 59.5,93.9 C77.9463106,93.9 92.9,78.9463106 92.9,60.5 Z M27.9,60.5 C27.9,43.0478019 42.0478019,28.9 59.5,28.9 C76.9521981,28.9 91.1,43.0478019 91.1,60.5 C91.1,77.9521981 76.9521981,92.1 59.5,92.1 C42.0478019,92.1 27.9,77.9521981 27.9,60.5 Z" id="Brooks_Element_57"></path>
            <path d="M86.4,60.5 C86.4,45.6435402 74.3564598,33.6 59.5,33.6 C44.6435402,33.6 32.6,45.6435402 32.6,60.5 C32.6,75.3564598 44.6435402,87.4 59.5,87.4 C74.3564598,87.4 86.4,75.3564598 86.4,60.5 Z M34.4,60.5 C34.4,46.6376528 45.6376528,35.4 59.5,35.4 C73.3623472,35.4 84.6,46.6376528 84.6,60.5 C84.6,74.3623472 73.3623472,85.6 59.5,85.6 C45.6376528,85.6 34.4,74.3623472 34.4,60.5 Z" id="Brooks_Element_56"></path>
            <polygon id="Brooks_Element_55" points="58.6 55.625 60.4 55.625 60.4 41 58.6 41"></polygon>
            <polygon id="Brooks_Element_54" points="71.8636039 74.1363961 73.1363961 72.8636039 63.3863961 63.1136039 62.1136039 64.3863961"></polygon>
            <path d="M63.65,60.5 C63.65,58.2080183 61.7919817,56.35 59.5,56.35 C57.2080183,56.35 55.35,58.2080183 55.35,60.5 C55.35,62.7919817 57.2080183,64.65 59.5,64.65 C61.7919817,64.65 63.65,62.7919817 63.65,60.5 Z M57.15,60.5 C57.15,59.2021308 58.2021308,58.15 59.5,58.15 C60.7978692,58.15 61.85,59.2021308 61.85,60.5 C61.85,61.7978692 60.7978692,62.85 59.5,62.85 C58.2021308,62.85 57.15,61.7978692 57.15,60.5 Z" id="Brooks_Element_53"></path>
        </g>
    </g>
</svg>