<?xml version="1.0" encoding="UTF-8" standalone="no"?>
<svg width="20px" height="20px" viewBox="0 0 20 20" version="1.1" xmlns="http://www.w3.org/2000/svg" xmlns:xlink="http://www.w3.org/1999/xlink">
    <!-- Generator: Sketch 41.1 (35376) - http://www.bohemiancoding.com/sketch -->
    <title>Fill 35</title>
    <desc>Created with Sketch.</desc>
    <defs></defs>
    <g id="a" stroke="none" stroke-width="1" fill="none" fill-rule="evenodd">
        <g id="Desktop-HD" transform="translate(-500.000000, -424.000000)" fill="#595959">
            <path d="M514.530528,434.000999 L519.062256,429.471641 C520.312581,428.223266 520.312581,426.190657 519.062256,424.942283 C517.810331,423.685906 515.781653,423.685906 514.530528,424.942283 L509.9996,429.471641 L505.468672,424.942283 C504.218347,423.685906 502.189669,423.685906 500.937744,424.942283 C499.687419,426.190657 499.687419,428.223266 500.937744,429.471641 L505.468672,434.000999 L500.937744,438.538359 C499.687419,439.786734 499.687419,441.819343 500.937744,443.067718 C502.189669,444.324094 504.218347,444.324094 505.468672,443.067718 L509.9996,438.538359 L514.530528,443.067718 C515.781653,444.324094 517.810331,444.324094 519.062256,443.067718 C520.312581,441.819343 520.312581,439.786734 519.062256,438.538359 L514.530528,434.000999" id="Fill-35"></path>
        </g>
    </g>
</svg>