<?xml version="1.0" encoding="UTF-8" standalone="no"?>
<svg width="20px" height="20px" viewBox="0 0 20 20" version="1.1" xmlns="http://www.w3.org/2000/svg" xmlns:xlink="http://www.w3.org/1999/xlink">
    <!-- Generator: Sketch 41.1 (35376) - http://www.bohemiancoding.com/sketch -->
    <title>Fill 70</title>
    <desc>Created with Sketch.</desc>
    <defs></defs>
    <g id="a" stroke="none" stroke-width="1" fill="none" fill-rule="evenodd">
        <g id="Desktop-HD" transform="translate(-475.000000, -424.000000)" fill="#595959">
            <path d="M493,440 L477,440 C475.896,440 475,440.896 475,442 C475,443.104 475.896,444 477,444 L493,444 C494.104,444 495,443.104 495,442 C495,440.896 494.104,440 493,440 L493,440 Z M493,432 L477,432 C475.896,432 475,432.896 475,434 C475,435.104 475.896,436 477,436 L493,436 C494.104,436 495,435.104 495,434 C495,432.896 494.104,432 493,432 L493,432 Z M477,428 L493,428 C494.104,428 495,427.104 495,426 C495,424.896 494.104,424 493,424 L477,424 C475.896,424 475,424.896 475,426 C475,427.104 475.896,428 477,428 L477,428 Z" id="Fill-70"></path>
        </g>
    </g>
</svg>